ply
format ascii 1.0
comment VCGLIB generated
element vertex 189
property float x
property float y
property float z
property float nx
property float ny
property float nz
property uchar red
property uchar green
property uchar blue
property uchar alpha
element face 0
property list uchar int vertex_indices
end_header
16.7553 -42.7589 4.33501 -0.329628 0.452187 0.828778 197 131 128 255 
16.8513 -42.2516 4.14204 -0.337433 0.429291 0.837764 208 143 138 255 
16.7475 -42.8335 4.37539 -0.302636 0.473308 0.82728 198 129 126 255 
16.8596 -42.7529 4.35504 -0.222578 0.419267 0.880156 198 131 128 255 
16.8856 -42.3764 4.22259 -0.408071 0.397175 0.822028 207 143 139 255 
16.7695 -42.6706 4.29554 -0.337673 0.40744 0.848511 198 132 129 255 
16.8429 -42.5389 4.27099 -0.381261 0.342809 0.858558 201 136 132 255 
16.8567 -42.4477 4.23985 -0.414765 0.375735 0.82873 204 141 137 255 
16.8532 -42.6359 4.30835 -0.297683 0.350819 0.887869 199 134 130 255 
16.8313 -42.347 4.18136 -0.401304 0.40879 0.819662 206 143 139 255 
17.3502 -40.4186 3.50868 0.0566666 0.488321 0.870822 225 145 133 255 
17.0429 -42.3398 4.28709 -0.417066 0.433928 0.7986 208 142 138 255 
17.3425 -40.3507 3.46802 0.0637369 0.508541 0.858675 223 143 129 255 
17.0441 -41.844 3.9498 -0.160471 0.449805 0.878592 200 123 112 255 
17.0381 -41.9286 3.99617 -0.170242 0.498767 0.849852 208 132 120 255 
17.2465 -41.2449 3.78842 -0.0505039 0.201264 0.978234 197 123 119 255 
17.2249 -41.9207 4.02846 -0.205646 0.54257 0.814449 212 136 120 255 
17.0536 -41.7743 3.91584 -0.152194 0.411611 0.898562 198 121 109 255 
16.9626 -41.9714 4.00815 -0.18297 0.507441 0.842036 206 131 120 255 
17.058 -42.3622 4.30688 -0.415582 0.39946 0.817143 207 141 137 255 
17.3535 -40.9481 3.74605 -0.0527635 0.226902 0.972487 203 134 132 255 
17.0473 -41.452 3.82182 -0.111511 0.206079 0.972161 198 119 109 255 
17.2486 -41.3249 3.80725 -0.0686078 0.244058 0.967331 197 123 119 255 
17.2491 -41.1506 3.7714 -0.045247 0.176756 0.983214 196 124 120 255 
17.1476 -40.7348 3.6817 0.00767267 0.295896 0.955189 209 138 133 255 
17.1528 -41.2406 3.78553 -0.0461093 0.193624 0.979992 195 122 117 255 
17.2646 -40.4128 3.51272 0.0703376 0.496629 0.865108 228 146 132 255 
16.9357 -42.2355 4.17051 -0.370175 0.447861 0.813874 211 144 138 255 
17.0498 -41.7263 3.89349 -0.149082 0.378451 0.913537 198 120 108 255 
17.0483 -42.2588 4.2429 -0.389999 0.497697 0.774724 208 142 137 255 
17.347 -41.2379 3.79134 -0.0763159 0.224928 0.971382 197 125 120 255 
17.0484 -41.6462 3.86519 -0.13936 0.302462 0.942918 198 120 108 255 
17.2491 -40.9461 3.74039 -0.0490164 0.194419 0.979693 198 131 128 255 
17.0461 -41.5488 3.84061 -0.119549 0.230682 0.965657 199 120 108 255 
17.2478 -41.9588 4.05851 -0.213523 0.547268 0.809263 213 137 122 255 
17.1399 -42.0371 4.08704 -0.243218 0.60378 0.759141 213 139 125 255 
17.246 -40.7311 3.67934 0.0223471 0.34141 0.939649 207 139 134 255 
17.1647 -42.2777 4.31044 -0.350319 0.503833 0.789575 209 140 135 255 
17.35 -40.8595 3.724 -0.0189944 0.299111 0.954029 206 139 135 255 
17.1509 -40.9494 3.73526 -0.0467563 0.198764 0.978931 196 128 124 255 
17.3536 -41.6419 3.92122 -0.177015 0.351014 0.919486 193 118 105 255 
17.1465 -42.3596 4.35225 -0.381151 0.441733 0.812155 216 146 141 255 
17.2498 -41.7507 3.9417 -0.187921 0.408671 0.893126 196 119 107 255 
17.1421 -42.2164 4.2607 -0.329859 0.556521 0.762546 212 143 138 255 
17.0528 -41.3546 3.80366 -0.083975 0.20193 0.975793 196 122 115 255 
17.1493 -40.8517 3.71478 -0.0374843 0.235282 0.971204 204 135 130 255 
17.1361 -41.7331 3.91059 -0.162441 0.378573 0.911205 197 119 106 255 
17.277 -41.5644 3.88345 -0.159158 0.306524 0.938462 194 117 107 255 
17.1487 -41.642 3.88081 -0.160585 0.296753 0.941355 197 119 106 255 
17.0748 -41.897 3.98643 -0.166735 0.483161 0.859509 205 128 116 255 
17.3483 -41.7389 3.95691 -0.178339 0.393737 0.901758 199 123 107 255 
17.3507 -40.5347 3.57724 0.0502983 0.47775 0.877055 225 147 137 255 
17.1473 -42.4278 4.38655 -0.402871 0.405864 0.820347 213 145 140 255 
17.2207 -41.8246 3.97431 -0.181787 0.442782 0.878008 204 128 113 255 
17.246 -41.4542 3.84493 -0.108115 0.278402 0.95436 195 120 112 255 
17.2432 -40.6529 3.64545 0.0396658 0.396116 0.917343 214 143 136 255 
17.3568 -40.2258 3.40549 0.0536338 0.496911 0.866142 222 139 125 255 
16.9699 -42.4626 4.30268 -0.419733 0.352845 0.836257 208 143 138 255 
17.0372 -42.1074 4.11806 -0.261098 0.586029 0.767071 214 144 136 255 
17.1505 -41.5504 3.85657 -0.154017 0.255844 0.95437 196 118 107 255 
17.3558 -41.5546 3.89302 -0.154002 0.323127 0.933741 191 117 107 255 
17.1491 -41.0495 3.75173 -0.0459907 0.173489 0.983761 194 125 121 255 
16.9373 -42.7095 4.3466 -0.212617 0.304127 0.928602 199 132 129 255 
17.161 -41.9572 4.03924 -0.209948 0.536116 0.817619 210 134 118 255 
17.3513 -41.0523 3.76194 -0.0667984 0.173854 0.982503 199 130 127 255 
17.2753 -41.6484 3.90747 -0.174356 0.326952 0.928818 195 117 106 255 
17.0476 -42.7495 4.35456 -0.136079 0.210017 0.968182 204 134 131 255 
17.3502 -41.3547 3.82211 -0.0902985 0.271053 0.95832 197 123 118 255 
17.1326 -41.9232 4.01248 -0.163371 0.50061 0.850118 207 131 117 255 
17.3431 -42.1387 4.27278 -0.134001 0.675992 0.724623 220 144 128 255 
17.3508 -41.1481 3.77516 -0.0783863 0.178787 0.98076 197 127 122 255 
17.156 -41.1482 3.76832 -0.0475252 0.179261 0.982653 195 123 118 255 
17.2394 -40.5702 3.60508 0.0511987 0.460183 0.886347 218 144 135 255 
16.9464 -42.1218 4.102 -0.264366 0.52517 0.808892 211 143 136 255 
17.2515 -40.8558 3.72066 -0.0350296 0.253912 0.966593 204 136 133 255 
16.9399 -42.4559 4.28434 -0.425852 0.343301 0.837135 208 143 139 255 
16.9629 -42.1611 4.13482 -0.306255 0.522963 0.795435 211 143 135 255 
17.367 -42.1803 4.30646 -0.0767222 0.598671 0.797312 216 139 126 255 
17.2591 -42.2492 4.33609 -0.303303 0.592331 0.746426 211 139 133 255 
17.2874 -41.925 4.04702 -0.208109 0.548197 0.810044 208 131 116 255 
17.3272 -42.0794 4.21158 -0.131109 0.665803 0.734518 221 144 125 255 
16.9549 -41.8526 3.93905 -0.153064 0.430764 0.889389 201 124 113 255 
17.3498 -42.2321 4.3658 -0.0786884 0.50125 0.861717 219 142 127 255 
17.252 -41.0523 3.75695 -0.0494249 0.167726 0.984594 196 127 124 255 
17.1541 -41.3499 3.80949 -0.0638557 0.226133 0.972001 195 122 117 255 
17.1571 -41.4513 3.83441 -0.0965365 0.243553 0.965071 195 118 110 255 
17.4359 -41.9902 4.1374 -0.117961 0.634496 0.763872 215 138 118 255 
17.2605 -41.8712 4.00773 -0.19477 0.488099 0.850779 204 129 113 255 
17.3428 -41.3175 3.81014 -0.0904185 0.260739 0.961166 197 125 120 255 
16.961 -42.5584 4.32577 -0.368067 0.284885 0.88508 205 140 136 255 
16.9622 -42.2736 4.20916 -0.392942 0.456721 0.798124 210 145 140 255 
17.2405 -41.7206 3.92558 -0.179866 0.37171 0.910758 196 119 107 255 
17.0617 -41.2724 3.78846 -0.0602349 0.192474 0.979452 193 121 115 255 
17.2455 -41.5444 3.87189 -0.142697 0.284311 0.948053 193 117 107 255 
17.539 -41.2303 3.81234 -0.143317 0.237566 0.960741 196 128 124 255 
17.5441 -41.3398 3.84341 -0.148875 0.291279 0.944983 190 123 118 255 
17.4447 -41.738 3.97803 -0.173344 0.392352 0.903334 199 122 107 255 
17.4428 -41.4468 3.86605 -0.135569 0.318369 0.938223 190 119 112 255 
17.5508 -40.6515 3.6297 0.0192193 0.430525 0.902374 219 144 140 255 
17.5406 -41.4425 3.87941 -0.144722 0.327977 0.933534 186 119 113 255 
17.4506 -40.6564 3.63636 0.030881 0.424872 0.904727 218 144 139 255 
17.5692 -41.9491 4.11213 -0.0293265 0.552764 0.832822 206 132 110 255 
17.5823 -41.6896 3.98844 -0.136453 0.382033 0.914019 190 117 104 255 
17.5605 -42.1822 4.29979 0.0264848 0.64122 0.7669 213 136 116 255 
17.4447 -41.3482 3.8309 -0.116992 0.294483 0.948469 198 127 123 255 
17.4459 -41.1443 3.7841 -0.102324 0.186881 0.977039 200 130 126 255 
17.4428 -40.5318 3.57135 0.0364027 0.479489 0.876793 222 146 136 255 
17.5487 -40.7469 3.67582 0.01607 0.404237 0.914513 212 141 138 255 
17.5503 -40.5427 3.57564 0.0151967 0.43399 0.90079 221 145 139 255 
17.5543 -41.5575 3.92769 -0.150552 0.348619 0.925094 186 117 109 255 
17.5471 -42.1322 4.25481 0.0325616 0.633224 0.773284 211 134 113 255 
17.5487 -40.7939 3.69686 0.00839752 0.39627 0.918096 211 140 137 255 
17.5493 -41.0442 3.78268 -0.0837872 0.22226 0.971381 208 138 136 255 
17.4531 -41.6498 3.94481 -0.176541 0.365952 0.913735 194 118 106 255 
17.5643 -42.1869 4.30279 0.0301693 0.65564 0.754471 212 137 117 255 
17.4494 -40.9502 3.7529 -0.054211 0.252494 0.966079 206 137 136 255 
17.5551 -42.0223 4.1668 0.00583035 0.602304 0.798245 206 132 110 255 
17.4539 -40.5786 3.599 0.0285052 0.463277 0.885755 220 145 138 255 
17.5541 -41.6513 3.96623 -0.163537 0.372457 0.913527 192 118 106 255 
17.4505 -41.229 3.79914 -0.122425 0.227783 0.965985 199 128 124 255 
17.4539 -41.5655 3.91328 -0.15908 0.348551 0.923691 188 117 108 255 
17.5627 -41.7599 4.01255 -0.136477 0.421005 0.896732 198 122 106 255 
17.5607 -41.2515 3.82086 -0.150035 0.242075 0.958587 196 128 124 255 
17.5417 -41.0532 3.78468 -0.0832408 0.220434 0.971844 207 138 135 255 
17.5473 -40.8561 3.72392 0.00636133 0.36798 0.929812 210 139 137 255 
17.538 -40.9471 3.75742 -0.0399053 0.298868 0.95346 210 140 137 255 
17.4537 -41.8329 4.02652 -0.17082 0.450757 0.87615 200 124 107 255 
17.4488 -40.8657 3.72675 -0.0159469 0.329907 0.943879 208 139 136 255 
17.4473 -40.4591 3.52976 0.0421592 0.489508 0.870979 221 144 132 255 
17.4474 -40.7452 3.67773 0.0131785 0.395489 0.918376 211 140 137 255 
17.5513 -41.4893 3.89972 -0.14846 0.338858 0.929051 185 118 111 255 
17.4467 -42.0703 4.20283 -0.041874 0.660892 0.749312 219 141 121 255 
17.7504 -40.7397 3.66293 0.0262914 0.415511 0.909208 208 135 131 255 
17.7497 -41.2483 3.85593 -0.188754 0.314523 0.930294 203 134 126 255 
17.6493 -41.0404 3.78902 -0.0619827 0.267557 0.961546 211 140 136 255 
17.7515 -41.1609 3.8296 -0.134651 0.298976 0.944713 212 141 131 255 
17.6483 -40.7416 3.66951 0.0290338 0.416708 0.908577 209 137 133 255 
17.7566 -41.5487 3.94899 -0.121037 0.30296 0.945286 181 115 107 255 
17.6359 -40.5828 3.59502 0.0286606 0.442352 0.896384 216 140 137 255 
17.6416 -41.3447 3.86352 -0.170544 0.298296 0.939113 186 122 118 255 
17.6413 -40.5377 3.57273 0.0302461 0.440436 0.897275 214 139 134 255 
17.7373 -41.336 3.88012 -0.191544 0.299298 0.934736 196 129 122 255 
17.7514 -41.4528 3.91855 -0.175871 0.294161 0.939435 188 122 116 255 
17.6559 -41.9608 4.12409 0.00885685 0.570947 0.820939 189 120 101 255 
17.6517 -40.9739 3.7691 -0.00775485 0.349797 0.936793 211 140 136 255 
17.7501 -40.6593 3.62761 0.0334376 0.415592 0.908937 211 136 132 255 
17.6416 -41.4384 3.89482 -0.151658 0.327842 0.93248 186 122 117 255 
17.6427 -40.8609 3.72302 0.0157253 0.371692 0.928223 209 138 134 255 
17.6532 -41.5588 3.9424 -0.137143 0.338923 0.930765 183 116 108 255 
17.6395 -42.2101 4.3048 0.0549473 0.630648 0.774122 206 132 112 255 
17.7539 -40.8573 3.71616 0.0277471 0.395873 0.917886 211 138 133 255 
17.7386 -42.0393 4.17777 0.00869921 0.591922 0.805949 174 110 94 255 
17.7366 -40.641 3.61861 0.0305091 0.417497 0.908166 211 136 132 255 
17.6416 -41.8934 4.08165 -0.0227348 0.484477 0.874509 203 127 105 255 
17.7393 -41.8532 4.0627 -0.0321573 0.435304 0.899709 183 115 97 255 
17.7504 -41.0404 3.79079 -0.0518108 0.33887 0.939406 213 141 133 255 
17.6517 -40.9498 3.75936 0.00778549 0.351784 0.936049 211 140 136 255 
17.7414 -41.088 3.80658 -0.0710315 0.29446 0.95302 214 143 135 255 
17.6493 -42.1523 4.25843 0.0296592 0.61094 0.791121 197 126 108 255 
17.6306 -41.9856 4.13708 0.0100945 0.579871 0.814645 191 121 102 255 
17.653 -41.1546 3.81584 -0.132036 0.245792 0.960288 208 139 134 255 
17.8605 -41.0927 3.81446 -0.104164 0.347289 0.931955 211 140 130 255 
17.838 -40.9416 3.74911 0.00549998 0.377414 0.926028 213 141 134 255 
17.8561 -41.1517 3.83883 -0.145506 0.346429 0.926723 210 139 129 255 
17.9517 -41.7541 4.03873 -0.0462708 0.354435 0.933935 169 105 92 255 
17.9659 -41.2632 3.91353 -0.219303 0.352094 0.90991 198 129 121 255 
17.8408 -41.1114 3.81904 -0.106376 0.341809 0.93373 210 139 129 255 
17.957 -41.6653 3.99813 -0.108673 0.304889 0.946168 158 101 91 255 
17.8651 -41.751 4.02944 -0.0443093 0.360067 0.931874 164 104 91 255 
17.9574 -41.3482 3.93826 -0.198029 0.269818 0.942329 195 128 120 255 
17.9413 -41.9378 4.10942 0.00931216 0.407141 0.913318 183 112 93 255 
17.8501 -40.6866 3.63139 0.0258205 0.416767 0.908647 213 137 132 255 
17.9327 -41.0285 3.7911 -0.0716802 0.379894 0.922249 209 138 128 255 
17.9495 -40.7469 3.66489 0.0177994 0.405277 0.914021 214 137 128 255 
17.86 -41.9577 4.10846 -0.0033345 0.424673 0.905341 174 109 92 255 
17.8451 -41.6381 3.9865 -0.115497 0.296628 0.947983 168 106 96 255 
17.9722 -41.1806 3.87993 -0.194404 0.341141 0.91969 196 128 120 255 
17.8431 -41.241 3.87277 -0.200819 0.346285 0.916383 203 134 125 255 
17.9749 -41.9426 4.10756 0.00829161 0.396592 0.917957 183 112 93 255 
17.9348 -41.2503 3.89978 -0.205399 0.330012 0.921359 202 133 124 255 
17.8467 -41.5491 3.95639 -0.17796 0.240628 0.954164 174 111 103 255 
17.8552 -41.3581 3.91731 -0.224807 0.302937 0.926116 201 132 125 255 
18.0363 -41.856 4.07403 -0.0420933 0.364065 0.930422 180 111 93 255 
18.0467 -41.3442 3.96949 -0.191859 0.225614 0.955138 191 125 115 255 
18.0583 -41.9474 4.13007 -0.0465063 0.358007 0.93256 192 117 97 255 
18.15 -41.5335 3.9898 -0.106615 0.14826 0.983185 178 115 105 255 
18.0725 -41.2872 3.95033 -0.200362 0.249108 0.947523 193 126 111 255 
18.0429 -41.4398 3.97707 -0.169583 0.216794 0.961375 190 123 115 255 
18.0262 -41.9534 4.0999 -0.0425791 0.367522 0.92904 192 117 97 255 
